<svg xmlns="http://www.w3.org/2000/svg" viewBox="0 0 640 512"><!--!Font Awesome Free 6.7.2 by @fontawesome - https://fontawesome.com License - https://fontawesome.com/license/free Copyright 2025 Fonticons, Inc.--><path d="M106.7 170.6l.1 0 49.6-20.7a7.3 7.3 0 0 0 3.7-6h0a7.3 7.3 0 0 0 -3.7-6l-49.6-20.7-.1 0L86 67.7a6.7 6.7 0 0 0 -11.9 0l-20.7 49.6-.1 0L3.7 138A7.3 7.3 0 0 0 0 144H0a7.3 7.3 0 0 0 3.7 6L53.3 170.6l.1 0L74 220.3a6.7 6.7 0 0 0 11.9 0l20.7-49.6zM471.4 467.4l-1-.4-1-.5a38.7 38.7 0 0 1 0-69.1l1-.5 1-.4 37.5-15.6 15.6-37.5 .4-1 .5-1c3.9-7.7 10.6-13.6 18.4-17.3 0-1.3 .3-2.7 .3-4V144a32 32 0 0 0 -64 0v72a8 8 0 0 1 -8 8H456a8 8 0 0 1 -8-8V64a32 32 0 0 0 -64 0V216a8 8 0 0 1 -8 8H360a8 8 0 0 1 -8-8V32a32 32 0 0 0 -64 0V216a8 8 0 0 1 -8 8H264a8 8 0 0 1 -8-8V64a32 32 0 0 0 -64 0v241l-23.6-32.5a40 40 0 0 0 -64.7 47.1L229.3 492.2A48.1 48.1 0 0 0 268.1 512H465.7c19.2 0 35.7-11.7 43.2-28.8l-.1-.2zM349.8 339.5 320 351.9l-12.4 29.8a4 4 0 0 1 -7.2 0L288 351.9l-29.8-12.4a4 4 0 0 1 0-7.2L288 319.9l12.4-29.8a4 4 0 0 1 7.2 0L320 319.9l29.8 12.4a4 4 0 0 1 0 7.2zM640 431.9a7.3 7.3 0 0 0 -3.7-6l-49.6-20.7-.1 0L566 355.6a6.7 6.7 0 0 0 -11.9 0l-20.7 49.6-.1 0L483.7 426a7.3 7.3 0 0 0 -3.7 6h0a7.3 7.3 0 0 0 3.7 6l49.6 20.7 .1 0L554 508.2a6.7 6.7 0 0 0 11.9 0l20.7-49.6h0l.1 0 49.6-20.7a7.3 7.3 0 0 0 3.7-6h0z"/></svg>